<svg width="91" height="42" viewBox="0 0 91 42" fill="none" xmlns="http://www.w3.org/2000/svg">
<path d="M0.954834 15.455L6.33083 0.544984H9.66983L15.0458 15.455H12.1898L10.9508 11.927H5.04983L3.81083 15.455H0.954834ZM5.84783 9.59598H10.1528L8.01083 3.29598L5.84783 9.59598Z" fill="#101010"/>
<path d="M17.2251 15.455V0.544984H19.9551V15.455H17.2251Z" fill="#101010"/>
<path d="M29.1383 15.791C24.8543 15.791 22.3133 12.578 22.3133 8.02098C22.3133 3.54798 24.8963 0.208984 29.2643 0.208984C33.0443 0.208984 34.9763 2.28798 35.6063 5.33298L32.7713 5.47998C32.4353 3.73698 31.4273 2.58198 29.2853 2.58198C26.4503 2.58198 25.1483 4.99698 25.1483 8.02098C25.1483 11.129 26.4293 13.418 29.3273 13.418C31.5323 13.418 32.8763 11.885 33.0023 9.88998H29.3063V7.76898H35.6483V15.455H33.8843L33.7793 13.208C33.0233 14.762 31.2173 15.791 29.1383 15.791Z" fill="#101010"/>
<path d="M44.1446 15.707C42.5696 15.707 41.3726 14.993 40.7426 13.796L40.6796 15.455H38.1176V0.544984H40.8056V5.83698C41.3936 4.82898 42.5906 3.98898 44.1446 3.98898C47.0426 3.98898 48.8696 6.27798 48.8696 9.84798C48.8696 13.418 47.0426 15.707 44.1446 15.707ZM43.5356 13.523C45.0686 13.523 46.0766 12.137 46.0766 9.84798C46.0766 7.51698 45.0896 6.17298 43.5566 6.17298C41.8136 6.17298 40.8056 7.51698 40.8056 9.84798C40.8056 12.137 41.8136 13.523 43.5356 13.523Z" fill="#101010"/>
<path d="M55.951 15.707C52.591 15.707 50.449 13.397 50.449 9.84798C50.449 6.31998 52.591 3.98898 55.888 3.98898C59.101 3.98898 61.222 6.21498 61.222 9.99498V10.604H53.242C53.347 12.578 54.376 13.565 55.972 13.565C57.169 13.565 57.988 12.998 58.303 12.011L61.054 12.179C60.445 14.363 58.534 15.707 55.951 15.707ZM58.429 8.79798C58.303 6.97098 57.316 6.10998 55.888 6.10998C54.439 6.10998 53.452 7.05498 53.242 8.79798H58.429Z" fill="#101010"/>
<path d="M2.15183 41.455V26.545H7.92683C11.4128 26.545 13.4918 28.33 13.4918 31.291C13.4918 34.273 11.4128 36.079 7.92683 36.079H4.88183V41.455H2.15183ZM7.80083 33.706C9.64883 33.706 10.6778 32.887 10.6778 31.291C10.6778 29.737 9.66983 28.918 7.80083 28.918H4.88183V33.706H7.80083Z" fill="#101010"/>
<path d="M15.7436 41.455V30.241H18.2636L18.3266 32.404C18.7676 30.892 19.6496 30.241 21.0146 30.241H22.0436V32.551H20.9936C19.2716 32.551 18.4316 33.265 18.4316 34.987V41.455H15.7436Z" fill="#101010"/>
<path d="M28.5731 41.707C25.2131 41.707 23.0711 39.397 23.0711 35.848C23.0711 32.32 25.2131 29.989 28.5101 29.989C31.7231 29.989 33.8441 32.215 33.8441 35.995V36.604H25.8641C25.9691 38.578 26.9981 39.565 28.5941 39.565C29.7911 39.565 30.6101 38.998 30.9251 38.011L33.6761 38.179C33.0671 40.363 31.1561 41.707 28.5731 41.707ZM31.0511 34.798C30.9251 32.971 29.9381 32.11 28.5101 32.11C27.0611 32.11 26.0741 33.055 25.8641 34.798H31.0511Z" fill="#101010"/>
<path d="M40.9398 41.707C37.6008 41.707 35.4168 39.397 35.4168 35.848C35.4168 32.32 37.6008 29.989 40.9398 29.989C43.7958 29.989 45.8328 31.543 46.1688 34.21L43.3968 34.357C43.1868 32.929 42.2418 32.173 40.9398 32.173C39.1968 32.173 38.2098 33.538 38.2098 35.848C38.2098 38.179 39.1968 39.523 40.9398 39.523C42.2418 39.523 43.1868 38.767 43.3968 37.192L46.1688 37.318C45.8538 40.006 43.8378 41.707 40.9398 41.707Z" fill="#101010"/>
<path d="M47.9819 41.455V30.241H50.6699V41.455H47.9819ZM47.9399 28.75V26.356H50.7329V28.75H47.9399Z" fill="#101010"/>
<path d="M58.474 41.707C55.135 41.707 52.951 39.397 52.951 35.848C52.951 32.299 55.135 29.989 58.474 29.989C61.792 29.989 63.976 32.299 63.976 35.848C63.976 39.397 61.792 41.707 58.474 41.707ZM58.474 39.523C60.196 39.523 61.204 38.179 61.204 35.848C61.204 33.538 60.196 32.173 58.474 32.173C56.731 32.173 55.744 33.538 55.744 35.848C55.744 38.179 56.731 39.523 58.474 39.523Z" fill="#101010"/>
<path d="M69.7658 41.707C67.4768 41.707 66.0698 40.132 66.0698 37.465V30.241H68.7578V36.793C68.7578 38.683 69.3668 39.523 70.6688 39.523C72.1178 39.523 72.9578 38.536 72.9578 36.688V30.241H75.6458V41.455H73.1888L73.1468 39.586C72.5798 40.993 71.4248 41.707 69.7658 41.707Z" fill="#101010"/>
<path d="M84.459 41.791C80.742 41.791 78.495 39.712 78.243 36.604L81.015 36.436C81.288 38.368 82.422 39.439 84.501 39.439C86.244 39.439 87.273 38.788 87.273 37.507C87.273 36.352 86.685 35.659 83.64 34.945C79.944 34.105 78.558 33.055 78.558 30.619C78.558 28.015 80.574 26.209 83.934 26.209C87.483 26.209 89.457 28.288 89.772 31.165L87.021 31.291C86.832 29.674 85.761 28.561 83.892 28.561C82.296 28.561 81.33 29.359 81.33 30.514C81.33 31.732 82.044 32.194 84.69 32.803C88.701 33.664 90.045 35.134 90.045 37.36C90.045 40.09 87.819 41.791 84.459 41.791Z" fill="#101010"/>
</svg>
