<svg width="127" height="42" viewBox="0 0 127 42" fill="none" xmlns="http://www.w3.org/2000/svg">
<path d="M0 15.246L5.376 0.335999H8.715L14.091 15.246H11.235L9.996 11.718H4.095L2.856 15.246H0ZM4.893 9.387H9.198L7.056 3.087L4.893 9.387Z" fill="#101010"/>
<path d="M16.2702 15.246V0.335999H19.0002V15.246H16.2702Z" fill="#101010"/>
<path d="M28.1835 15.582C23.8995 15.582 21.3585 12.369 21.3585 7.812C21.3585 3.339 23.9415 0 28.3095 0C32.0895 0 34.0215 2.079 34.6515 5.124L31.8165 5.271C31.4805 3.528 30.4725 2.373 28.3305 2.373C25.4955 2.373 24.1935 4.788 24.1935 7.812C24.1935 10.92 25.4745 13.209 28.3725 13.209C30.5775 13.209 31.9215 11.676 32.0475 9.681H28.3515V7.56H34.6935V15.246H32.9295L32.8245 12.999C32.0685 14.553 30.2625 15.582 28.1835 15.582Z" fill="#101010"/>
<path d="M43.1898 15.498C41.6148 15.498 40.4178 14.784 39.7878 13.587L39.7248 15.246H37.1628V0.335999H39.8508V5.628C40.4388 4.62 41.6358 3.78 43.1898 3.78C46.0878 3.78 47.9148 6.069 47.9148 9.639C47.9148 13.209 46.0878 15.498 43.1898 15.498ZM42.5808 13.314C44.1138 13.314 45.1218 11.928 45.1218 9.639C45.1218 7.308 44.1348 5.964 42.6018 5.964C40.8588 5.964 39.8508 7.308 39.8508 9.639C39.8508 11.928 40.8588 13.314 42.5808 13.314Z" fill="#101010"/>
<path d="M54.9962 15.498C51.6362 15.498 49.4942 13.188 49.4942 9.639C49.4942 6.111 51.6362 3.78 54.9332 3.78C58.1462 3.78 60.2672 6.006 60.2672 9.786V10.395H52.2872C52.3922 12.369 53.4212 13.356 55.0172 13.356C56.2142 13.356 57.0332 12.789 57.3482 11.802L60.0992 11.97C59.4902 14.154 57.5792 15.498 54.9962 15.498ZM57.4742 8.589C57.3482 6.762 56.3612 5.901 54.9332 5.901C53.4842 5.901 52.4972 6.846 52.2872 8.589H57.4742Z" fill="#101010"/>
<path d="M1.197 41.246V26.336H4.872L8.988 37.886L13.104 26.336H16.779V41.246H14.049V30.956L10.29 41.225H7.686L3.927 30.956V41.246H1.197Z" fill="#101010"/>
<path d="M18.9492 41.246L24.3252 26.336H27.6642L33.0402 41.246H30.1842L28.9452 37.718H23.0442L21.8052 41.246H18.9492ZM23.8422 35.387H28.1472L26.0052 29.087L23.8422 35.387Z" fill="#101010"/>
<path d="M35.2195 41.246V26.336H41.4565C44.6695 26.336 46.7275 28.079 46.7275 30.809C46.7275 32.594 45.6145 33.896 44.1655 34.358C45.5725 34.568 46.3495 35.408 46.4755 36.941L46.8535 41.246H44.0815L43.7665 37.34C43.6825 36.143 43.0735 35.618 41.5195 35.618H37.9495V41.246H35.2195ZM41.2885 33.224C42.9265 33.224 43.9135 32.426 43.9135 30.977C43.9135 29.507 42.9265 28.709 41.1625 28.709H37.9495V33.224H41.2885Z" fill="#101010"/>
<path d="M53.2622 41.246L47.8652 26.336H50.7422L54.9212 38.201L59.1002 26.336H61.9562L56.5592 41.246H53.2622Z" fill="#101010"/>
<path d="M67.506 41.498C64.146 41.498 62.004 39.188 62.004 35.639C62.004 32.111 64.146 29.78 67.443 29.78C70.656 29.78 72.777 32.006 72.777 35.786V36.395H64.797C64.902 38.369 65.931 39.356 67.527 39.356C68.724 39.356 69.543 38.789 69.858 37.802L72.609 37.97C72 40.154 70.089 41.498 67.506 41.498ZM69.984 34.589C69.858 32.762 68.871 31.901 67.443 31.901C65.994 31.901 65.007 32.846 64.797 34.589H69.984Z" fill="#101010"/>
<path d="M77.7087 41.246C76.0497 41.246 74.9997 40.469 74.9997 38.6L75.0207 26.336H77.7087V38.327C77.7087 38.915 78.0027 39.167 78.5487 39.167H79.3677V41.246H77.7087Z" fill="#101010"/>
<path d="M84.1071 41.246C82.4481 41.246 81.3981 40.469 81.3981 38.6L81.4191 26.336H84.1071V38.327C84.1071 38.915 84.4011 39.167 84.9471 39.167H85.7661V41.246H84.1071Z" fill="#101010"/>
<path d="M92.7516 41.498C89.4126 41.498 87.2286 39.188 87.2286 35.639C87.2286 32.09 89.4126 29.78 92.7516 29.78C96.0696 29.78 98.2536 32.09 98.2536 35.639C98.2536 39.188 96.0696 41.498 92.7516 41.498ZM92.7516 39.314C94.4736 39.314 95.4816 37.97 95.4816 35.639C95.4816 33.329 94.4736 31.964 92.7516 31.964C91.0086 31.964 90.0216 33.329 90.0216 35.639C90.0216 37.97 91.0086 39.314 92.7516 39.314Z" fill="#101010"/>
<path d="M106.452 41.582C102.798 41.582 100.488 39.398 100.488 35.912V26.315H103.218V35.912C103.218 38.033 104.394 39.209 106.452 39.209C108.531 39.209 109.707 38.033 109.707 35.912V26.315H112.437V35.912C112.437 39.398 110.127 41.582 106.452 41.582Z" fill="#101010"/>
<path d="M121.136 41.582C117.419 41.582 115.172 39.503 114.92 36.395L117.692 36.227C117.965 38.159 119.099 39.23 121.178 39.23C122.921 39.23 123.95 38.579 123.95 37.298C123.95 36.143 123.362 35.45 120.317 34.736C116.621 33.896 115.235 32.846 115.235 30.41C115.235 27.806 117.251 26 120.611 26C124.16 26 126.134 28.079 126.449 30.956L123.698 31.082C123.509 29.465 122.438 28.352 120.569 28.352C118.973 28.352 118.007 29.15 118.007 30.305C118.007 31.523 118.721 31.985 121.367 32.594C125.378 33.455 126.722 34.925 126.722 37.151C126.722 39.881 124.496 41.582 121.136 41.582Z" fill="#101010"/>
</svg>
